<?xml version="1.0" encoding="UTF-8" standalone="no"?>
<!-- Created with Inkscape (http://www.inkscape.org/) -->

<svg
   xmlns:dc="http://purl.org/dc/elements/1.1/"
   xmlns:cc="http://creativecommons.org/ns#"
   xmlns:rdf="http://www.w3.org/1999/02/22-rdf-syntax-ns#"
   xmlns:svg="http://www.w3.org/2000/svg"
   xmlns="http://www.w3.org/2000/svg"
   xmlns:sodipodi="http://sodipodi.sourceforge.net/DTD/sodipodi-0.dtd"
   xmlns:inkscape="http://www.inkscape.org/namespaces/inkscape"
   width="512"
   height="512"
   viewBox="0 0 135.46666 135.46667"
   version="1.1"
   id="svg8"
   inkscape:version="0.92.4 (5da689c313, 2019-01-14)"
   sodipodi:docname="logo.svg">
  <defs
     id="defs2" />
  <sodipodi:namedview
     id="base"
     pagecolor="#ffffff"
     bordercolor="#666666"
     borderopacity="1.0"
     inkscape:pageopacity="0.0"
     inkscape:pageshadow="2"
     inkscape:zoom="1.4"
     inkscape:cx="302.55197"
     inkscape:cy="259.47125"
     inkscape:document-units="px"
     inkscape:current-layer="layer1"
     showgrid="true"
     units="px"
     inkscape:window-width="1916"
     inkscape:window-height="1036"
     inkscape:window-x="0"
     inkscape:window-y="20"
     inkscape:window-maximized="0"
     inkscape:snap-bbox="true"
     inkscape:bbox-nodes="true"
     inkscape:snap-global="false">
    <inkscape:grid
       type="xygrid"
       id="grid815"
       originx="67.733334"
       originy="67.733334"
       spacingx="8.4666667"
       spacingy="8.4666667" />
  </sodipodi:namedview>
  <metadata
     id="metadata5">
    <rdf:RDF>
      <cc:Work
         rdf:about="">
        <dc:format>image/svg+xml</dc:format>
        <dc:type
           rdf:resource="http://purl.org/dc/dcmitype/StillImage" />
        <dc:title />
      </cc:Work>
    </rdf:RDF>
  </metadata>
  <g
     inkscape:label="Layer 1"
     inkscape:groupmode="layer"
     id="layer1"
     transform="translate(0,-161.53333)">
    <path
       style="fill:none;stroke:#a40000;stroke-width:2.64583325;stroke-linecap:round;stroke-linejoin:round;stroke-miterlimit:4;stroke-dasharray:none;stroke-opacity:1"
       d="m 20.692036,203.67016 c 0,1.76389 0,3.52778 0,5.29167 0,0.69296 0.129661,1.39815 0,2.07887 -0.126953,0.6665 -0.627821,1.2236 -0.755952,1.88988 -0.329557,1.7137 -0.116424,3.73911 -0.188988,5.48065 -0.02897,0.69522 -0.1335,1.38528 -0.188988,2.07888 -0.07051,0.88137 -0.132062,1.76347 -0.188988,2.64583 -0.06907,1.07056 -0.117628,2.14239 -0.188989,3.21279 -0.435199,6.528 0.06974,-2.1305 -0.377976,5.48066 -0.06669,1.13372 -0.11587,2.26846 -0.188988,3.40179 -0.05288,0.81966 -0.137752,1.63707 -0.188988,2.45684 -0.292138,4.67422 -0.07203,2.33139 -0.377976,6.61459 -0.256743,3.5944 -0.08989,0.94384 -0.377976,3.96874 -0.07192,0.75516 -0.117069,1.5127 -0.188988,2.26786 -0.05409,0.56789 -0.118232,1.13485 -0.188988,1.70089 -0.05525,0.44201 -0.154824,0.87878 -0.188988,1.32292 -0.02899,0.37686 0.03139,0.75726 0,1.13393 -0.03182,0.38186 -0.130722,0.75519 -0.188988,1.13393 -0.06773,0.44027 -0.125993,0.88194 -0.188989,1.32291 -0.134817,0.94373 -0.233019,1.89261 -0.377976,2.83483 -0.04884,0.31748 -0.119306,0.63137 -0.188988,0.94494 -0.05635,0.25355 -0.156771,0.49821 -0.188988,0.75595 -0.0547,0.43757 0.07249,0.88794 0,1.32291 -0.03275,0.19651 -0.14992,0.37163 -0.188988,0.56697 -0.01348,0.0674 0.04211,0.67174 0,0.75595 -0.03984,0.0797 -0.149146,0.10931 -0.188988,0.18899 -0.07559,0.15119 0.07559,0.41577 0,0.56696 -0.03984,0.0797 -0.149146,0.10931 -0.188988,0.18899 -0.02817,0.0563 0.04454,0.14445 0,0.18899 -0.164943,0.16494 -0.38735,-0.20773 -0.566965,-0.56696 -0.02817,-0.0564 0.01528,-0.12788 0,-0.18899 -0.04831,-0.19327 -0.156238,-0.37047 -0.188988,-0.56697 -0.03107,-0.18641 0.03706,-0.38164 0,-0.56696 -0.02763,-0.13813 -0.125992,-0.25198 -0.188988,-0.37798 -0.125992,-0.25198 -0.263556,-0.4985 -0.377976,-0.75595 -0.13778,-0.31 -0.237596,-0.6361 -0.377976,-0.94494 -0.174869,-0.38471 -0.43333,-0.73302 -0.566964,-1.13393 -0.183664,-0.55099 -0.237113,-1.13744 -0.377977,-1.70089 -0.174204,-0.69682 -0.377976,-1.38591 -0.566964,-2.07887 -0.188988,-0.69296 -0.329685,-1.40093 -0.566964,-2.07887 -0.204962,-0.58561 -0.541464,-1.11871 -0.755952,-1.70089 -0.838478,-2.27587 -0.399068,-1.64672 -0.9449412,-4.15774 -1.574103,-7.24088 0.2796612,2.34324 -0.94494,-3.77976 -0.491836,-2.45918 -0.343007,-1.77121 -0.566965,-4.34673 -0.06028,-0.6932 -0.157393,-1.38377 -0.188988,-2.07887 -0.03146,-0.69224 0,-1.38591 0,-2.07886 0,-0.88195 0,-1.76389 0,-2.64584 0,-1.13393 0,-2.26786 0,-3.40179 0,-0.88194 -0.07532,-1.76711 0,-2.64583 0.114126,-1.33146 0.363763,-2.64794 0.566964,-3.96875 0.546678,-3.5534 0.531048,-3.28415 1.3229172,-6.80357 0.311983,-1.38659 0.591936,-2.78102 0.944941,-4.15774 0.277259,-1.08131 0.683013,-2.12767 0.94494,-3.2128 0.179824,-0.74498 0.152595,-1.53536 0.377976,-2.26785 0.282183,-0.9171 0.731831,-1.77463 1.133929,-2.64583 0.71795,-1.55556 1.346248,-2.73344 2.267857,-4.15774 0.294394,-0.45498 0.62996,-0.88195 0.94494,-1.32292 1.5137,-2.11918 0.344502,-0.56459 2.078869,-2.64583 0.01617,-0.0194 1.509512,-1.88771 1.511905,-1.88988 1.119078,-1.01735 1.350909,-0.91425 2.645834,-1.51191 0.383694,-0.17709 0.743845,-0.40443 1.133928,-0.56696 0.399859,-0.16661 2.096632,-0.67877 2.456844,-0.75596 0.894765,-0.19173 2.136794,-0.28754 3.023812,-0.18898 0.577241,0.0641 1.135536,0.24495 1.700892,0.37797 1.069904,0.25174 2.1946,0.52568 3.212796,0.94494 0.946457,0.38972 2.337996,1.23776 3.212798,1.7009 1.457505,0.77161 1.652143,0.72113 3.023809,1.70089 0.861079,0.61505 1.342867,1.15388 2.078871,1.88988 1.181479,1.18148 0.782781,0.72575 1.889879,2.07887 0.255432,0.31219 0.532204,0.60931 0.755955,0.94494 1.010607,1.51591 0.591933,1.01985 1.133927,2.64583 0.0051,0.0151 1.132372,3.01797 1.133927,3.02381 0.233535,0.87575 0.18899,1.41415 0.18899,2.26786 0,0.95003 0.04454,1.25588 -0.18899,2.26786 -0.304125,1.31788 -0.419864,1.00768 -0.944938,2.26785 -0.153241,0.36778 -0.187192,0.78416 -0.377978,1.13393 -0.193154,0.35412 -0.5187,0.61872 -0.755952,0.94494 -0.267189,0.36739 -0.434734,0.81271 -0.755951,1.13393 -0.321218,0.32122 -0.766543,0.48876 -1.13393,0.75595 -0.326221,0.23725 -0.643457,0.48797 -0.944939,0.75595 -0.266348,0.23676 -0.489606,0.5192 -0.755954,0.75596 -0.876231,0.77887 -1.180584,0.92645 -2.267857,1.5119 -0.372079,0.20035 -0.73678,0.42255 -1.133928,0.56697 -0.301879,0.10977 -0.640207,0.0874 -0.944941,0.18898 -1.765628,0.58855 0.128696,0.13384 -1.322916,0.75596 -0.238739,0.10231 -0.509543,0.10685 -0.755952,0.18898 -0.133636,0.0446 -0.241318,0.15483 -0.377976,0.18899 -0.122232,0.0306 -0.255746,-0.0306 -0.377976,0 -0.273317,0.0683 -0.488682,0.28889 -0.755954,0.37798 -0.118618,0.0395 -0.603808,0 -0.755951,0"
       id="path3045"
       inkscape:connector-curvature="0" />
    <path
       style="fill:none;stroke:#a40000;stroke-width:2.64583325;stroke-linecap:round;stroke-linejoin:round;stroke-miterlimit:4;stroke-dasharray:none;stroke-opacity:1"
       d="m 31.086381,246.75945 c 1.29322,0.36949 1.441543,0.48501 2.834823,0.56696 0.565986,0.0333 1.133927,0 1.700892,0 0.818949,0 1.637895,0 2.456844,0 1.014907,0 2.029913,0.0821 3.023809,-0.18899 1.298885,-0.35424 0.640086,-0.37685 1.889882,-0.94494 0.362709,-0.16486 0.784156,-0.18719 1.13393,-0.37797 1.141423,-0.6226 0.731967,-0.78521 1.700892,-1.5119 0.22538,-0.16904 0.556742,-0.17877 0.755952,-0.37798 0.19921,-0.19921 0.214225,-0.5267 0.377976,-0.75596 0.155347,-0.21748 0.393028,-0.36403 0.566965,-0.56696 0.204986,-0.23915 0.377976,-0.50397 0.566965,-0.75595 0.188987,-0.25199 0.400023,-0.48885 0.566962,-0.75595 0.268436,-0.4295 0.587942,-1.25286 0.755955,-1.7009 0.06995,-0.18652 0.160813,-0.36975 0.188986,-0.56696 0.03564,-0.24945 0,-0.50397 0,-0.75595 0,-0.37798 0,-0.75596 0,-1.13393 0,-0.75259 0,-0.38134 0,-1.13393 0,-0.18899 0.03107,-0.38055 0,-0.56696 -0.03275,-0.19651 -0.125992,-0.37798 -0.188986,-0.56697 -0.063,-0.18899 -0.08649,-0.39614 -0.18899,-0.56696 -0.09167,-0.15279 -0.251984,-0.25199 -0.377975,-0.37798 -0.125992,-0.12599 -0.251984,-0.25198 -0.377976,-0.37798 -0.23843,-0.23842 -0.492657,-0.55848 -0.755955,-0.75595 -0.112688,-0.0845 -0.251983,-0.12599 -0.377975,-0.18898 -0.125992,-0.063 -0.251984,-0.126 -0.377976,-0.18899 -0.125992,-0.063 -0.241319,-0.15483 -0.377976,-0.18899 -0.12223,-0.0306 -0.251984,0 -0.377976,0 -0.503968,0 -1.007938,0 -1.511906,0 -0.503967,0 -1.007935,0 -1.511903,0 -0.125992,0 -0.254431,-0.0247 -0.377976,0 -0.195344,0.0391 -0.377978,0.12599 -0.566965,0.18899 -0.188989,0.063 -0.396142,0.0865 -0.566965,0.18899 -1.682747,1.00964 1.52944,-0.3855 -1.133927,0.75595 -0.183105,0.0785 -0.38386,0.11051 -0.566965,0.18898 -1.142209,0.48952 -0.37392,0.21367 -1.322917,0.75596 -0.244607,0.13977 -0.511344,0.2382 -0.755951,0.37797 -0.445389,0.25451 -0.917292,0.65521 -1.322917,0.94494 -0.796221,0.56873 -1.202134,0.70953 -1.889882,1.51191 -0.21142,0.24666 -0.859991,1.38448 -0.944941,1.5119 -1.606121,2.1415 0.352158,-0.56345 -0.94494,1.51191 -0.166939,0.2671 -0.413997,0.48061 -0.566963,0.75595 -0.489418,0.88095 -0.248706,0.7693 -0.566965,1.5119 -0.221956,0.5179 -0.558112,0.98433 -0.755952,1.51191 -0.145507,0.38801 -0.28817,1.34167 -0.377978,1.70089 -0.04832,0.19326 -0.160814,0.36976 -0.188987,0.56697 -0.03564,0.24945 0,0.50397 0,0.75595 0,0.44097 0,0.88194 0,1.32292 0,0.37797 -0.04688,0.75887 0,1.13392 0.07398,0.59186 0.350195,1.15898 0.566965,1.7009 0.125992,0.31498 0.251984,0.62996 0.377976,0.94494 0.125992,0.31498 0.311444,0.61228 0.377976,0.94494 0.06177,0.30886 -0.07639,0.63936 0,0.94494 0.05509,0.22035 0.265285,0.36975 0.377976,0.56696 1.035915,2.07183 -0.332018,-0.46482 0.944941,1.32292 0.16375,0.22925 0.19463,0.54205 0.377976,0.75595 0.204985,0.23915 0.533228,0.34424 0.755951,0.56697 0.222726,0.22272 0.344242,0.53322 0.566965,0.75595 0.285226,0.28522 0.643456,0.48797 0.944941,0.75595 0.266345,0.23675 0.459444,0.55828 0.755952,0.75595 0.282268,0.18818 0.648388,0.21323 0.94494,0.37798 2.848775,1.58265 -1.612069,-0.52255 1.700893,1.13393 0.797377,0.39868 1.393894,0.48704 2.267857,0.75595 0.380805,0.11717 0.740929,0.31248 1.133928,0.37798 0.372835,0.0621 0.755954,0 1.13393,0 1.31458,0 1.107765,0.10384 2.456844,-0.37798 0.451813,-0.16136 0.871104,-0.4056 1.322917,-0.56696 2.795648,-0.79876 -0.06991,0.10787 2.456846,-0.94494 0.367774,-0.15324 0.777568,-0.1998 1.133928,-0.37798 0.003,-0.002 1.491205,-1.11915 1.511906,-1.13393 0.375578,-0.26827 1.014095,-0.63612 1.322916,-0.94494 0.222724,-0.22272 0.344239,-0.53323 0.566963,-0.75595 0.16061,-0.16061 0.406357,-0.21737 0.566965,-0.37798 0.0996,-0.0996 0.110852,-0.26077 0.188989,-0.37797 0.108717,-0.16308 0.419349,-0.41935 0.566962,-0.56697"
       id="path3047"
       inkscape:connector-curvature="0" />
    <path
       style="fill:none;stroke:#a40000;stroke-width:2.64583325;stroke-linecap:round;stroke-linejoin:round;stroke-miterlimit:4;stroke-dasharray:none;stroke-opacity:1"
       d="m 66.238166,210.47373 c -0.393923,0.26101 -0.104402,0.79559 -0.188987,1.13393 -0.03417,0.13666 -0.16583,0.23903 -0.188989,0.37798 -0.08285,0.49711 0.07127,1.013 0,1.5119 -0.02817,0.19721 -0.13426,0.37542 -0.188987,0.56697 -0.197429,0.691 -0.369535,1.38787 -0.566965,2.07887 -0.54225,1.89787 0.212831,-1.04032 -0.377976,1.32291 -0.063,0.25199 -0.156771,0.49822 -0.188989,0.75596 -0.07032,0.56258 0.05642,1.13674 0,1.70089 -0.03196,0.31962 -0.125992,0.62996 -0.188986,0.94494 -0.063,0.31498 -0.125992,0.62996 -0.18899,0.94494 -0.569994,2.84997 0.155813,-0.70116 -0.377976,1.70089 -0.06968,0.31357 -0.11108,0.63332 -0.188989,0.94495 -0.143346,0.57338 -0.307274,0.6866 -0.377976,1.32291 -0.141739,1.27567 0.113393,0.56696 0,1.70089 -0.03813,0.38129 -0.120441,0.75692 -0.188986,1.13393 -0.161682,0.88925 -0.371147,1.76465 -0.566965,2.64584 -0.06968,0.31356 -0.11108,0.63331 -0.188989,0.94494 -0.04832,0.19326 -0.164278,0.36929 -0.188987,0.56696 -0.03907,0.31255 0.03134,0.63152 0,0.94494 -0.03196,0.31962 -0.157025,0.62532 -0.188989,0.94494 -0.03134,0.31342 0.02617,0.63105 0,0.94494 -0.03699,0.44391 -0.15725,0.8786 -0.188987,1.32292 -0.03142,0.43985 0,0.88194 0,1.32291 0,0.62997 0,1.25993 0,1.88989 0,2.14186 0,4.28373 0,6.42559 0,1.88988 0,3.77976 0,5.66964 0,0.56697 0,1.13393 0,1.7009 0,0.25198 0,0.50397 0,0.75595 0,0.18899 -0.03107,0.38055 0,0.56696 0.03275,0.1965 0.149918,0.37162 0.188987,0.56697 0.02471,0.12354 -0.02471,0.25443 0,0.37797 0.03907,0.19535 0.125992,0.37798 0.188989,0.56697 0.063,0.18899 0.115004,0.382 0.188987,0.56696 0.05232,0.13079 0.144444,0.24435 0.188989,0.37798 0.08214,0.24641 0.117631,0.5062 0.188989,0.75595 0.109453,0.38309 0.251984,0.75595 0.377976,1.13393 0.063,0.18899 0.0999,0.38878 0.188986,0.56696 0.101579,0.20316 0.251984,0.37798 0.377976,0.56697 0.125992,0.18899 0.236088,0.3896 0.377979,0.56696 0.111307,0.13914 0.286303,0.22519 0.377976,0.37798 0.102491,0.17082 0.07849,0.40121 0.188986,0.56696 0.619215,0.92882 0.436671,0.24768 1.13393,0.94494 0.882745,0.88275 -1.000143,-0.22579 0.755952,0.94494 0.165753,0.11051 0.382003,0.11501 0.566965,0.18899 0.130789,0.0523 0.239847,0.16137 0.377976,0.18899 0.185316,0.0371 0.377975,0 0.566965,0 0.752591,0 0.381336,0 1.133927,0 0.314981,0 0.62996,0 0.944941,0 0.063,0 0.132644,0.0282 0.188987,0 0.203157,-0.10158 0.372197,-0.26112 0.566965,-0.37798 0.12079,-0.0725 0.27837,-0.0894 0.377975,-0.18898 0.16061,-0.16061 0.217369,-0.40636 0.377976,-0.56697 0.16061,-0.16061 0.394512,-0.23016 0.566965,-0.37798 0.685075,-0.5872 0.801648,-0.81688 1.322917,-1.5119 0.188989,-0.25199 0.392245,-0.49387 0.566965,-0.75595 0.07814,-0.11721 0.116514,-0.25719 0.188986,-0.37798 0.357611,-0.59601 0.310881,-0.49987 0.755955,-0.94494 0.125992,-0.12599 0.251984,-0.25198 0.377976,-0.37798 0.06299,-0.063 0.160813,-0.10447 0.188986,-0.18898 0.03984,-0.11953 -0.03984,-0.25845 0,-0.37798 0.02817,-0.0845 0.149148,-0.1093 0.188989,-0.18899 0.02802,-0.056 0,-0.95113 0,-1.13393"
       id="path3049"
       inkscape:connector-curvature="0" />
    <path
       style="fill:none;stroke:#a40000;stroke-width:2.64583325;stroke-linecap:round;stroke-linejoin:round;stroke-miterlimit:4;stroke-dasharray:none;stroke-opacity:1"
       d="m 55.276857,238.44397 c 1.126161,-0.13249 2.275625,0.13249 3.401787,0 0.515919,-0.0607 1.001324,-0.28224 1.511903,-0.37797 1.940068,-0.36376 1.161992,-0.0161 3.212799,-0.37798 1.002636,-0.17694 1.854816,-0.51095 2.83482,-0.75595 0.311628,-0.0779 0.631372,-0.11931 0.94494,-0.18899 0.253556,-0.0563 0.498219,-0.15677 0.755955,-0.18899 0.250036,-0.0312 0.507396,0.0414 0.755951,0 0.277895,-0.0463 0.482637,-0.30965 0.755952,-0.37797 0.168725,-0.0422 0.726181,0 0.944941,0"
       id="path3051"
       inkscape:connector-curvature="0" />
    <path
       style="fill:none;stroke:#a40000;stroke-width:2.64583325;stroke-linecap:round;stroke-linejoin:round;stroke-miterlimit:4;stroke-dasharray:none;stroke-opacity:1"
       d="m 82.113165,236.55409 c 0.125992,0.62996 0.251987,1.25992 0.377979,1.88988 0.125992,0.62996 0.229174,1.26492 0.377976,1.88989 0.166364,0.69873 0.385656,1.38386 0.566962,2.07886 0.196694,0.75399 0.361939,1.5161 0.566965,2.26786 0.173053,0.63452 0.432824,1.24601 0.566965,1.88988 0.181703,0.87217 0.231513,1.76706 0.377976,2.64583 0.105616,0.6337 0.272359,1.25619 0.377976,1.88988 0.0835,0.50099 0.09539,1.01272 0.188989,1.51191 0.09573,0.51058 0.282242,1.00132 0.377976,1.5119 0.0936,0.4992 0.121862,1.00847 0.188986,1.51191 0.05887,0.44154 0.157253,0.8786 0.18899,1.32292 0.03142,0.43985 -0.03662,0.88346 0,1.32291 0.02667,0.32011 0.153516,0.62569 0.188989,0.94494 0.02783,0.25045 0,0.50397 0,0.75596 0,0.31498 0,0.62996 0,0.94494 0,1.13392 0,2.26785 0,3.40178 0,0.31498 0,0.62996 0,0.94494 0,0.12599 0,0.25199 0,0.37798 0,0.063 0.06299,0.18899 0,0.18899 -0.063,0 0,-0.12599 0,-0.18899 0,-0.12599 0,-0.25199 0,-0.37798 0,-0.44097 0,-0.88194 0,-1.32291 0,-0.18899 0.05976,-0.38768 0,-0.56697 -0.07183,-0.21548 -0.251987,-0.37798 -0.377979,-0.56696 -0.125992,-0.25199 -0.297021,-0.48611 -0.377975,-0.75596 -0.353119,-1.17706 -0.09664,-0.97067 -0.188987,-2.07886 -0.03699,-0.44391 -0.157253,-0.8786 -0.188989,-1.32292 -0.03142,-0.43985 0,-0.88194 0,-1.32292 0,-0.50397 0,-1.00793 0,-1.5119 0,-1.60144 -0.05642,-1.95476 0.188989,-3.59078 0.820454,-5.4697 -0.12777,1.5046 0.944941,-3.59077 0.130423,-0.61952 0.05856,-1.27036 0.188986,-1.88988 0.123119,-0.58481 0.388705,-1.13046 0.566965,-1.70089 0.273587,-0.87549 0.465897,-1.77567 0.755952,-2.64584 1.905,-5.715 -0.77107,2.69119 1.13393,-3.02381 0.145026,-0.43508 0.201583,-0.89957 0.377976,-1.32291 0.141279,-0.33907 0.388575,-0.62384 0.566962,-0.94494 0.136819,-0.24628 0.266999,-0.49701 0.377979,-0.75595 0.07847,-0.18311 0.0999,-0.38879 0.188986,-0.56697 0.462487,-0.92497 0.228608,-0.24181 0.755952,-0.94494 0.08452,-0.11269 0.104471,-0.26529 0.188989,-0.37798 0.177869,-0.23716 0.632815,-0.67792 0.944941,-0.75595 0.12223,-0.0306 0.255746,0.0306 0.377976,0 0.441552,-0.11039 0.4866,-0.41418 0.944941,-0.56696 0.118618,-0.0395 0.603811,0 0.755951,0"
       id="path3053"
       inkscape:connector-curvature="0" />
    <path
       style="fill:none;stroke:#a40000;stroke-width:2.64583325;stroke-linecap:round;stroke-linejoin:round;stroke-miterlimit:4;stroke-dasharray:none;stroke-opacity:1"
       d="m 101.76793,235.04219 c -0.18899,0.25198 -0.34424,0.53322 -0.56697,0.75595 -0.0445,0.0446 -0.14444,-0.0445 -0.18898,0 -0.0446,0.0446 0.0282,0.13264 0,0.18899 -0.0797,0.15937 -0.27914,0.22972 -0.37798,0.37798 -0.0781,0.1172 -0.11652,0.25718 -0.18899,0.37797 -0.11686,0.19477 -0.2764,0.36381 -0.37797,0.56696 -0.0891,0.17818 -0.110521,0.38387 -0.188991,0.56697 -0.11098,0.25895 -0.25199,0.50397 -0.37798,0.75595 -0.12599,0.25199 -0.22866,0.51705 -0.37797,0.75595 -1.858633,2.97381 0.72195,-1.6329 -0.94494,1.7009 -0.47952,0.95902 -0.580937,0.79087 -0.944945,1.70089 -0.147971,0.36992 -0.213109,0.77122 -0.377976,1.13393 -0.152001,0.3344 -0.372282,0.63345 -0.566965,0.94494 -0.12038,0.19261 -0.288502,0.35819 -0.377976,0.56696 -0.0016,0.003 -0.373089,1.49481 -0.377976,1.51191 -0.05473,0.19154 -0.13426,0.37542 -0.188989,0.56696 -0.07136,0.24975 -0.106849,0.50954 -0.188987,0.75595 -0.251984,0.75596 -0.181345,-0.0382 -0.377976,0.94494 -0.02471,0.12355 0,0.25199 0,0.37798 0,0.18899 0,0.37798 0,0.56696 0,0.75596 0,1.51191 0,2.26786 0,1.07093 0,2.14187 0,3.2128 0,0.50397 0,1.00794 0,1.5119 0,0.126 -0.03056,0.25575 0,0.37798 0.03416,0.13666 0.136674,0.24719 0.188987,0.37798 0.07399,0.18496 0.125992,0.37797 0.188989,0.56696 0.125992,0.37798 0.268521,0.75084 0.377976,1.13393 0.07136,0.24975 0.146288,0.49975 0.188989,0.75595 0.02072,0.12428 -0.04679,0.261 0,0.37798 0.08435,0.21089 0.251984,0.37797 0.377976,0.56696 0.125992,0.18899 0.241694,0.38526 0.377976,0.56697 0.05345,0.0713 0.125992,0.12599 0.188987,0.18898 0.125991,0.126 0.271068,0.23544 0.377978,0.37798 0.08452,0.11269 0.104468,0.26529 0.188987,0.37798 0.408715,0.54495 0.273052,0.24503 0.755955,0.56696 0.27809,0.18539 0.47786,0.57056 0.75595,0.75595 0.33241,0.22161 0.56077,0.22431 0.94494,0.37798 0.13079,0.0523 0.23985,0.16136 0.377981,0.18899 0.18531,0.0371 0.37797,0 0.56696,0 0.25199,0 0.50397,0 0.75595,0 0.25097,0 1.15461,0.0421 1.32292,0 0.0864,-0.0216 0.11772,-0.13554 0.18899,-0.18899 0.66071,-0.49553 0.55771,-0.25349 1.13393,-0.94494 0.1454,-0.17449 0.24595,-0.38214 0.37797,-0.56697 0.18308,-0.25631 0.38389,-0.49964 0.56697,-0.75595 0.13202,-0.18482 0.24169,-0.38525 0.37797,-0.56696 0.15489,-0.20652 1.13693,-1.39092 1.32292,-1.70089 0.21742,-0.36237 0.37798,-0.75596 0.56696,-1.13393 0.18899,-0.37798 0.41527,-0.73951 0.56697,-1.13393 0.16463,-0.42805 0.21334,-0.89487 0.37797,-1.32292 0.15171,-0.39442 0.41527,-0.7395 0.56697,-1.13393 0.16463,-0.42805 0.2431,-0.88457 0.37797,-1.32291 0.11718,-0.38081 0.28135,-0.74741 0.37798,-1.13393 0.0929,-0.37175 0.0961,-0.76218 0.18899,-1.13393 0.19326,-0.77305 0.56269,-1.49481 0.75595,-2.26786 2.7e-4,-0.001 0.37682,-2.26148 0.37798,-2.26786 0.0575,-0.31603 0.15351,-0.62568 0.18899,-0.94494 0.0278,-0.25044 0,-0.50396 0,-0.75595 0,-0.37797 0,-0.75595 0,-1.13392 0,-0.56697 0,-1.13394 0,-1.7009 0,-0.18899 0,-0.37798 0,-0.56696 0,-0.18899 0.0311,-0.38055 0,-0.56697 -0.0327,-0.1965 -0.14992,-0.37162 -0.18899,-0.56696 -0.0618,-0.30887 0.0391,-0.63239 0,-0.94494 -0.16742,-1.33935 -0.0669,-0.54525 -0.37798,-1.32292 -0.14797,-0.36992 -0.19979,-0.77757 -0.37797,-1.13393 -0.0399,-0.0797 -0.13958,-0.11486 -0.18899,-0.18899 -0.0781,-0.1172 -0.126,-0.25198 -0.18899,-0.37797 -0.063,-0.12599 -0.14444,-0.24434 -0.18899,-0.37798 -0.0199,-0.0598 0.0282,-0.13264 0,-0.18898 -0.0251,-0.0502 -0.51678,-0.54188 -0.56696,-0.56697 -0.0564,-0.0282 -0.13657,0.0349 -0.18899,0 -0.57864,-0.38576 -0.2184,-0.2912 -0.56697,-0.75595 -0.49597,-0.6613 -0.20406,-0.15305 -0.75595,-0.56697 -0.49785,-0.37339 -0.44709,-0.76054 -0.94494,-1.13393 -0.53537,-0.40153 -0.19712,-0.0493 -0.75595,-0.18898 -0.13666,-0.0342 -0.26077,-0.11086 -0.37798,-0.18899 -0.0741,-0.0494 -0.11486,-0.13957 -0.18899,-0.18899 -0.3489,-0.2326 -0.78502,-0.33436 -1.13392,-0.56696 -0.43247,-0.28831 0.11817,-0.1496 -0.56697,-0.37798 -0.0598,-0.0199 -0.12599,0 -0.18899,0 -0.12599,0 -0.25198,0 -0.37797,0 -0.44097,0 -0.88195,0 -1.32292,0 -0.50397,0 -1.00794,0 -1.5119,0 -0.125991,0 -0.251991,0 -0.377981,0 -0.12599,0 -0.25574,-0.0306 -0.37798,0 -0.12258,0.0307 -1.01349,0.48667 -1.13392,0.56697 -0.16308,0.10871 -0.41935,0.41934 -0.56697,0.56696 -0.06299,0.063 -0.109302,0.14914 -0.188986,0.18899 -0.05635,0.0282 -0.144444,-0.0446 -0.188989,0 -0.04455,0.0445 0.02817,0.13264 0,0.18898 -0.07969,0.15937 -0.298292,0.21861 -0.377976,0.37798 -0.02484,0.0497 0,0.65713 0,0.75595"
       id="path3057"
       inkscape:connector-curvature="0" />
    <path
       style="fill:none;stroke:#a40000;stroke-width:2.64583325;stroke-linecap:round;stroke-linejoin:round;stroke-miterlimit:4;stroke-dasharray:none;stroke-opacity:1"
       d="m 122.17864,202.53624 c -0.063,0.31498 -0.10074,0.63608 -0.18898,0.94494 -0.0387,0.13544 -0.15029,0.24253 -0.18899,0.37797 -0.15159,0.53056 -0.31658,1.80733 -0.37798,2.26786 -0.13425,1.00687 -0.25929,2.01499 -0.37798,3.02381 -0.28125,2.39062 -0.45738,4.79303 -0.75595,7.18155 -0.0553,0.44201 -0.13011,0.88137 -0.18899,1.32291 -0.20136,1.51026 -0.36559,3.02546 -0.56696,4.53572 -0.0589,0.44154 -0.152,0.879 -0.18899,1.32291 -0.0262,0.3139 0.0285,0.63126 0,0.94495 -0.0694,0.76323 -0.26144,1.51038 -0.37797,2.26785 -0.20311,1.3202 -0.34738,2.65123 -0.56697,3.96875 -0.10562,0.6337 -0.31981,1.25008 -0.37797,1.88988 -0.0342,0.37643 0.0376,0.75783 0,1.13393 -0.0258,0.25845 -0.13265,0.5024 -0.18899,0.75595 -0.0697,0.31357 -0.11931,0.63138 -0.18899,0.94494 -0.0564,0.25356 -0.15677,0.49822 -0.18899,0.75596 -0.0313,0.25004 0.0251,0.50522 0,0.75595 -0.0381,0.38129 -0.15429,0.75231 -0.18899,1.13393 -0.0285,0.31368 0.0348,0.63188 0,0.94494 -0.0287,0.25815 -0.13264,0.50239 -0.18899,0.75595 -0.0697,0.31357 -0.15351,0.62569 -0.18898,0.94494 -0.0278,0.25044 0.0312,0.50591 0,0.75595 -0.0322,0.25774 -0.16031,0.49781 -0.18899,0.75595 -0.0696,0.62611 0.0627,1.26305 0,1.88989 -0.032,0.31962 -0.15991,0.62504 -0.18899,0.94494 -0.0342,0.37642 0.0342,0.7575 0,1.13392 -0.0343,0.37703 -0.27737,1.29848 -0.37798,1.7009 -0.063,0.25198 -0.15677,0.49822 -0.18898,0.75595 -0.0781,0.62509 0.057,1.26251 0,1.88988 -0.0291,0.3199 -0.15991,0.62504 -0.18899,0.94494 -0.0342,0.37643 0.0314,0.75726 0,1.13393 -0.0318,0.38187 -0.1543,0.75231 -0.18899,1.13393 -0.0285,0.31369 0,0.62996 0,0.94494 0,0.37797 0,0.75595 0,1.13393 0,1.00793 0,2.01587 0,3.02381 0,0.69295 0,1.38591 0,2.07887 0,0.25198 0,0.50396 0,0.75595 0,0.25198 -0.0356,0.5065 0,0.75595 0.0282,0.19721 0.15624,0.37046 0.18899,0.56696 0.0311,0.18642 0,0.37798 0,0.56697 0,0.44097 0,0.88194 0,1.32292 0,0.0851 -0.0288,0.50944 0,0.56696 0.20893,0.41786 0.11729,0.0587 0.37797,0.18899 0.0797,0.0398 0.126,0.12599 0.18899,0.18899 0.063,0.063 0.14915,0.1093 0.18899,0.18898 0.0282,0.0564 -0.0282,0.13265 0,0.18899 0.0251,0.0502 0.51679,0.54188 0.56696,0.56697 0.0563,0.0282 0.126,0 0.18899,0 0.126,0 0.25199,0 0.37798,0 0.56696,0 1.13393,0 1.70089,0 0.18899,0 0.37988,-0.0267 0.56697,0 0.25712,0.0367 0.49974,0.14628 0.75595,0.18898 0.12428,0.0207 0.25198,0 0.37797,0 0.18899,0 0.38165,0.0371 0.56697,0 0.13813,-0.0276 0.24719,-0.13667 0.37798,-0.18898 0.18496,-0.074 0.38878,-0.0999 0.56696,-0.18899 0.20316,-0.10158 0.3722,-0.26112 0.56696,-0.37798 0.50105,-0.30063 0.32429,-0.049 0.75596,-0.56696 0.55084,-0.66101 0.95193,-1.42557 1.5119,-2.07887 0.2899,-0.33821 0.62996,-0.62996 0.94494,-0.94494 0.12599,-0.12599 0.27107,-0.23543 0.37798,-0.37798 0.24904,-0.33205 0.0921,-0.56696 0.56696,-0.56696"
       id="path3059"
       inkscape:connector-curvature="0" />
  </g>
</svg>
